Coordinates
version=1
nRows=8
nColumns=63
inDegrees=yes

Units are S.I. units (second, meters, Newtons, ...)
If the header above contains a line with 'inDegrees', this indicates whether rotational values are in degrees (yes) or radians (no).

endheader
time	pelvis_tilt	pelvis_list	pelvis_rotation	pelvis_tx	pelvis_ty	pelvis_tz	hip_flexion_r	hip_adduction_r	hip_rotation_r	knee_angle_r	knee_angle_r_beta	ankle_angle_r	subtalar_angle_r	mtp_angle_r	hip_flexion_l	hip_adduction_l	hip_rotation_l	knee_angle_l	knee_angle_l_beta	ankle_angle_l	subtalar_angle_l	mtp_angle_l	L5_S1_Flex_Ext	L5_S1_Lat_Bending	L5_S1_axial_rotation	L4_L5_Flex_Ext	L4_L5_Lat_Bending	L4_L5_axial_rotation	L3_L4_Flex_Ext	L3_L4_Lat_Bending	L3_L4_axial_rotation	L2_L3_Flex_Ext	L2_L3_Lat_Bending	L2_L3_axial_rotation	L1_L2_Flex_Ext	L1_L2_Lat_Bending	L1_L2_axial_rotation	L1_T12_Flex_Ext	L1_T12_Lat_Bending	L1_T12_axial_rotation	Abs_r3	Abs_r2	Abs_r1	Abs_t1	Abs_t2	neck_flexion	neck_bending	neck_rotation	arm_flex_r	arm_add_r	arm_rot_r	elbow_flex_r	pro_sup_r	wrist_flex_r	wrist_dev_r	arm_flex_l	arm_add_l	arm_rot_l	elbow_flex_l	pro_sup_l	wrist_flex_l	wrist_dev_l
      6.05084746	      0.04768700	     -2.49177546	     87.59897322	      0.27623135	      0.96459949	      0.49489139	      6.53146076	      0.51408425	      9.94494582	      4.12304263	      0.07196067	     30.06812883	     -8.40331900	      0.00000000	      7.41798034	     -1.51932318	     10.27027984	      2.74785125	      0.04795905	     32.49917593	     -3.72451326	      0.00000000	      0.20107607	      0.05885744	     -0.17554492	      0.37341836	      0.07828039	     -0.18651648	      0.33034787	      0.14310597	     -0.18651648	      0.22980984	      0.14310597	     -0.15360181	      0.18671923	      0.12002208	     -0.14263025	      0.11489486	      0.09117017	     -0.13165869	      1.43626623	      0.66580709	     -0.97632821	      0.00000000	      0.00000000	     23.48114877	      2.51440639	      1.34308646	     11.66068259	    -13.66496418	     61.95172522	     54.13636455	      2.36240828	    -13.63838851	     10.03474709	     20.20377924	    -13.24989388	     73.07159023	     46.49906256	     69.34739428	      5.90765878	     -9.37072795
      6.06779661	     -0.01406237	     -2.45772480	     87.36839840	      0.27654037	      0.96456780	      0.49465478	      6.27623815	      0.53579846	     13.55197655	      3.69118802	      0.06442338	     28.67422734	    -13.09547743	      0.00000000	      7.06725447	     -1.40948974	     15.50118701	      2.13311220	      0.03722983	     30.79104003	    -11.04301166	      0.00000000	      0.19628390	      0.04345477	     -0.18941652	      0.36451883	      0.05779484	     -0.20125505	      0.32247482	      0.10565592	     -0.20125505	      0.22433287	      0.10565592	     -0.16573945	      0.18226923	      0.08861296	     -0.15390092	      0.11215662	      0.06731143	     -0.14206239	      1.40203627	      0.49156901	     -1.05347783	      0.00000000	      0.00000000	     24.00871722	      2.81805892	      0.88382536	     11.72838248	    -13.77673052	     63.00681602	     54.27325922	      2.52109895	    -12.06227108	      7.43186093	     19.65334179	    -13.61355094	     71.45325463	     47.36853854	     69.96262793	      6.16819820	     -8.50311504
      6.08474576	     -0.07823843	     -2.51130498	     87.26751561	      0.27659372	      0.96455796	      0.49498467	      6.42243180	      0.44349273	     12.93149407	      3.85080306	      0.06720919	     29.07875943	    -11.77765436	      0.00000000	      7.19687496	     -1.35759584	     14.59605094	      2.24196173	      0.03912961	     31.22222571	     -9.68508188	      0.00000000	      0.19358104	      0.03180111	     -0.24273731	      0.35949935	      0.04229548	     -0.25790839	      0.31803429	      0.07732122	     -0.25790839	      0.22124377	      0.07732122	     -0.21239515	      0.17975936	      0.06484882	     -0.19722406	      0.11061221	      0.04925992	     -0.18205298	      1.38273003	      0.35974051	     -1.35003210	      0.00000000	      0.00000000	     24.61709128	      3.00006965	      0.60362432	     12.12243205	    -13.95246546	     64.71713189	     54.40474123	      2.48518386	    -10.43500944	      4.21502014	     19.43030948	    -13.99862982	     70.65323052	     48.01378181	     70.23509647	      6.12545941	     -8.83994953
      6.10169492	     -0.12344104	     -2.54068057	     87.36214822	      0.27659580	      0.96464888	      0.49471805	      6.30188685	      0.37778833	     13.67393602	      3.61324677	      0.06306305	     28.71322649	    -12.62906472	      0.00000000	      7.15661111	     -1.29630776	     16.06942658	      2.08430282	      0.03637795	     30.69956122	    -11.36237302	      0.00000000	      0.19921704	      0.02115362	     -0.37050137	      0.36996597	      0.02813432	     -0.39365771	      0.32729368	      0.05143292	     -0.39365771	      0.22768516	      0.05143292	     -0.32418870	      0.18499295	      0.04313647	     -0.30103236	      0.11383262	      0.03276696	     -0.27787603	      1.42298742	      0.23929402	     -2.06061748	      0.00000000	      0.00000000	     25.11893332	      3.34942930	      0.79983987	     12.50302241	    -13.95848391	     66.19257658	     54.43758472	      2.67075064	     -9.22814216	      2.28318151	     18.75622293	    -14.62227197	     69.02763551	     49.07534805	     70.47862881	      6.17968797	     -8.35980228
      6.11864407	     -0.16365345	     -2.64563983	     87.49712659	      0.27628645	      0.96470643	      0.49476276	      6.47034227	      0.26462877	     11.85854996	      3.81352156	      0.06655851	     29.42189102	    -10.08666822	      0.00000000	      7.40528901	     -1.24836525	     14.01118972	      2.34896702	      0.04099721	     31.48290943	     -8.09710462	      0.00000000	      0.21346766	      0.01522138	     -0.47370525	      0.39643080	      0.02024444	     -0.50331183	      0.35070603	      0.03700927	     -0.50331183	      0.24397219	      0.03700927	     -0.41449209	      0.19822607	      0.03103945	     -0.38488552	      0.12197542	      0.02357792	     -0.35527894	      1.52477818	      0.17218734	     -2.63460650	      0.00000000	      0.00000000	     25.73818747	      3.53691695	      0.95054505	     12.92327300	    -14.08237173	     67.50464030	     54.71428084	      2.85337304	     -9.01852522	      0.63354491	     18.52492647	    -15.04202583	     68.77205198	     49.59824249	     69.98787303	      5.42967878	     -9.38442040
      6.13559322	     -0.19969950	     -2.67890872	     87.72816048	      0.27625732	      0.96485453	      0.49414870	      6.19602400	      0.23048240	     13.72846894	      3.36620735	      0.05875140	     28.40438954	    -12.95706546	      0.00000000	      7.28717652	     -1.16941002	     16.84402340	      2.07854372	      0.03627743	     30.43689103	    -11.55118299	      0.00000000	      0.23665793	      0.00389927	     -0.62484356	      0.43949744	      0.00518603	     -0.66389628	      0.38880532	      0.00948069	     -0.66389628	      0.27047635	      0.00948069	     -0.54673811	      0.21976055	      0.00795140	     -0.50768539	      0.13522634	      0.00603997	     -0.46863267	      1.69042394	      0.04410936	     -3.47519242	      0.00000000	      0.00000000	     26.14196190	      3.90801953	      1.36895781	     13.30566558	    -13.98906598	     68.64630586	     54.75387982	      3.04172253	     -8.69711509	      0.36992814	     17.74513551	    -15.68373894	     67.32380290	     50.57966890	     70.09727155	      5.27881963	     -8.69032434
      6.15254237	     -0.29522312	     -2.72857479	     87.81889405	      0.27635741	      0.96500474	      0.49448545	      6.40160378	      0.06734479	     10.73906553	      3.75076292	      0.06546316	     29.36914199	     -9.08156898	      0.00000000	      7.51553939	     -1.09580753	     14.05820987	      2.41374768	      0.04212784	     31.36778460	     -7.47732187	      0.00000000	      0.25341090	     -0.01578145	     -0.68272691	      0.47060939	     -0.02098933	     -0.72539735	      0.41632877	     -0.03837102	     -0.72539735	      0.28962332	     -0.03837102	     -0.59738605	      0.23531736	     -0.03218153	     -0.55471562	      0.14479899	     -0.02444547	     -0.51204519	      1.81008873	     -0.17852292	     -3.79712228	      0.00000000	      0.00000000	     26.56161740	      4.13874299	      1.36556913	     13.55594161	    -13.87400796	     69.02147426	     54.87158657	      2.99587753	     -9.23033324	      0.90282590	     17.91051395	    -16.15439002	     67.99702626	     50.92078267	     69.19597430	      4.60842329	     -9.44650924
      6.16949153	     -0.31637979	     -2.76922735	     87.94014370	      0.27645238	      0.96507264	      0.49432217	      6.24514505	      0.06969690	     12.31807822	      3.48673527	      0.06085501	     28.50822228	    -11.65374583	      0.00000000	      7.47333414	     -1.05664647	     15.91445369	      2.23309527	      0.03897486	     30.64501885	     -9.74212760	      0.00000000	      0.28048155	     -0.02302178	     -0.79226950	      0.52088228	     -0.03061896	     -0.84178634	      0.46080313	     -0.05597514	     -0.84178634	      0.32056236	     -0.05597514	     -0.69323581	      0.26045517	     -0.04694600	     -0.64371897	      0.16026716	     -0.03566073	     -0.59420212	      2.00345165	     -0.26042693	     -4.40636526	      0.00000000	      0.00000000	     26.78424637	      4.41507137	      1.76966128	     14.09931227	    -13.76251469	     70.46063023	     54.98112540	      2.78300667	    -10.10902907	      0.33329001	     17.17560214	    -16.56697118	     66.47925013	     51.56146424	     69.81341953	      4.93007327	     -8.46106214
